<?xml version="1.0" standalone="no"?>
<!DOCTYPE svg PUBLIC "-//W3C//DTD SVG 20010904//EN"
 "http://www.w3.org/TR/2001/REC-SVG-20010904/DTD/svg10.dtd">
<svg version="1.0" xmlns="http://www.w3.org/2000/svg"
 width="512.000000pt" height="512.000000pt" viewBox="0 0 512.000000 512.000000"
 preserveAspectRatio="xMidYMid meet">
<metadata>
Created by potrace 1.16, written by Peter Selinger 2001-2019
</metadata>
<g transform="translate(0.000000,512.000000) scale(0.100000,-0.100000)"
fill="#000000" stroke="none">
<path d="M1055 4694 c-501 -234 -912 -428 -915 -430 -6 -7 172 -2707 179
-2716 5 -6 1624 3470 1656 3555 4 9 3 17 -1 17 -5 0 -418 -192 -919 -426z"/>
<path d="M3124 5103 c30 -81 1652 -3561 1656 -3555 8 8 186 2709 180 2716 -8
6 -1828 856 -1836 856 -3 0 -3 -8 0 -17z"/>
<path d="M2233 2978 c-178 -431 -325 -791 -329 -800 -6 -17 29 -18 645 -18
358 0 651 3 651 7 0 15 -634 1593 -640 1593 -3 0 -150 -352 -327 -782z"/>
<path d="M1417 1057 c-64 -167 -117 -308 -117 -313 0 -9 1195 -698 1244 -718
19 -7 120 48 639 350 339 197 617 362 617 368 0 5 -53 146 -117 313 l-117 303
-1016 0 -1015 0 -118 -303z"/>
</g>
</svg>
