<?xml version="1.0" standalone="no"?>
<!DOCTYPE svg PUBLIC "-//W3C//DTD SVG 20010904//EN"
 "http://www.w3.org/TR/2001/REC-SVG-20010904/DTD/svg10.dtd">
<svg version="1.0" xmlns="http://www.w3.org/2000/svg"
 width="860.000000pt" height="860.000000pt" viewBox="0 0 860.000000 860.000000"
 preserveAspectRatio="xMidYMid meet">

<g transform="translate(0.000000,860.000000) scale(0.100000,-0.100000)"
fill="#000000" stroke="none">
<path d="M2710 7550 l0 -500 415 0 415 0 0 160 0 160 -235 0 -235 0 0 165 0
165 235 0 235 0 0 175 0 175 -415 0 -415 0 0 -500z"/>
<path d="M3890 7871 l0 -179 160 -154 c88 -84 160 -156 160 -160 0 -5 -72 -8
-160 -8 l-160 0 0 -160 0 -160 415 0 415 0 0 157 0 158 -167 167 -168 168 168
0 167 0 0 175 0 175 -415 0 -415 0 0 -179z"/>
<path d="M5060 7872 l0 -178 160 -153 c88 -84 160 -157 160 -162 0 -5 -70 -9
-160 -9 l-160 0 0 -160 0 -160 415 0 415 0 0 160 0 159 -167 165 -168 165 168
1 167 0 0 175 0 175 -415 0 -415 0 0 -178z"/>
<path d="M1630 6553 c-1 -43 491 -5371 498 -5393 7 -23 62 -39 1090 -316
l1083 -291 942 253 c518 140 1005 271 1082 292 l140 38 8 34 c7 33 497 5332
497 5378 l0 22 -2670 0 c-2536 0 -2670 -1 -2670 -17z m4832 -468 c-4 -60 -89
-1050 -117 -1370 -24 -264 -50 -559 -145 -1650 -21 -253 -49 -561 -60 -685
-11 -124 -33 -372 -49 -553 -15 -180 -31 -330 -34 -333 -3 -4 -97 -31 -209
-60 -112 -30 -261 -70 -333 -90 -191 -51 -355 -95 -400 -105 -22 -6 -76 -21
-120 -34 -44 -13 -152 -43 -240 -66 -88 -23 -180 -48 -205 -54 -103 -29 -240
-65 -245 -65 -3 0 -5 150 -5 334 0 310 -1 335 -17 340 -16 5 -1215 360 -1318
390 -37 11 -40 15 -43 51 -2 22 -21 245 -42 495 -22 250 -40 462 -40 472 0 17
20 18 339 18 l338 0 6 -37 c3 -21 13 -140 23 -264 l18 -226 362 -92 c199 -50
365 -91 368 -91 3 0 6 241 6 535 l0 535 -754 0 -754 0 -6 58 c-14 137 -47 584
-44 588 3 2 353 149 779 327 562 234 775 327 777 340 3 16 -45 17 -807 17
-446 0 -811 2 -811 4 0 3 -18 148 -40 323 -22 175 -40 321 -40 326 0 4 383 7
850 7 l850 0 0 330 0 330 1083 -2 1082 -3 -3 -40z"/>
</g>
</svg>
