<?xml version="1.0" standalone="no"?>
<!DOCTYPE svg PUBLIC "-//W3C//DTD SVG 20010904//EN"
 "http://www.w3.org/TR/2001/REC-SVG-20010904/DTD/svg10.dtd">
<svg version="1.0" xmlns="http://www.w3.org/2000/svg"
 width="256.000000pt" height="256.000000pt" viewBox="0 0 256.000000 256.000000"
 preserveAspectRatio="xMidYMid meet">
<metadata>
Created by potrace 1.16, written by Peter Selinger 2001-2019
</metadata>
<g transform="translate(0.000000,256.000000) scale(0.100000,-0.100000)"
fill="#000000" stroke="none">
<path d="M662 2553 c346 -2 910 -2 1255 0 346 1 63 2 -627 2 -690 0 -973 -1
-628 -2z"/>
<path d="M32 1283 l3 -1258 1255 0 1255 0 3 1258 2 1257 -1260 0 -1260 0 2
-1257z m2039 76 c13 -11 31 -18 41 -16 11 3 18 0 18 -9 0 -8 5 -14 11 -14 5 0
7 6 4 13 -4 6 0 4 8 -6 9 -10 18 -17 22 -15 4 2 26 -18 48 -45 39 -46 40 -48
22 -65 -10 -9 -15 -11 -11 -4 4 6 2 12 -3 12 -6 0 -11 -6 -11 -14 0 -8 -5 -18
-12 -22 -7 -4 -8 -3 -4 4 14 23 -7 11 -37 -20 -17 -18 -27 -27 -23 -20 4 6 3
12 -2 12 -5 0 -12 -10 -16 -22 -5 -18 -8 -20 -15 -9 -5 7 -13 11 -18 8 -11 -7
-66 46 -63 59 1 5 -4 10 -11 13 -7 2 -9 -1 -5 -8 5 -8 0 -8 -20 -1 -29 11
-131 7 -142 -6 -4 -4 1 -4 11 -1 15 6 14 1 -7 -24 -38 -45 -36 -97 7 -146 32
-37 10 -27 -26 12 -18 19 -18 19 -1 -8 20 -32 50 -51 66 -41 7 4 8 3 4 -4 -8
-14 29 -35 52 -28 9 3 33 -4 52 -14 37 -20 34 -28 -3 -9 -22 10 -22 10 -2 -6
11 -9 27 -14 36 -12 9 2 27 -2 40 -10 l24 -14 -25 6 c-14 3 0 -8 30 -24 58
-32 75 -37 65 -21 -3 6 -1 10 4 10 6 0 11 -8 11 -18 0 -10 15 -29 33 -42 l32
-23 -29 31 c-17 18 -28 32 -25 32 3 0 23 -19 44 -41 22 -23 34 -39 28 -35 -17
9 -16 7 7 -39 11 -22 20 -33 20 -26 0 7 -5 22 -11 33 -7 13 -7 18 -1 14 6 -3
18 -29 27 -57 26 -78 18 -211 -17 -270 -30 -50 -84 -107 -72 -75 5 14 4 17 -4
12 -7 -4 -12 -14 -12 -21 0 -20 -37 -39 -43 -22 -3 7 -6 4 -6 -6 -1 -10 -5
-15 -11 -12 -5 3 -10 0 -11 -7 0 -10 -2 -10 -6 0 -6 15 -24 16 -20 1 7 -33
-213 -41 -316 -12 -44 12 -55 18 -42 23 17 6 15 8 -8 14 -16 3 -32 4 -37 1 -5
-3 -12 0 -16 6 -5 8 -3 9 6 4 9 -6 11 -4 6 4 -5 7 -14 10 -22 7 -7 -3 -16 0
-20 6 -5 7 -2 8 7 3 8 -5 5 1 -5 13 -23 26 -44 30 -25 5 7 -10 1 -7 -15 7 -44
39 -88 107 -75 116 7 4 9 3 5 -4 -12 -20 9 -20 29 1 17 17 17 19 3 14 -28 -10
-21 1 11 18 20 10 31 11 33 4 2 -7 10 -4 18 7 9 11 10 15 3 10 -7 -4 -13 -5
-13 -2 0 13 57 34 70 26 8 -5 17 -7 20 -5 4 2 24 -14 45 -35 22 -22 35 -40 31
-40 -5 0 -3 -7 4 -15 7 -8 17 -15 22 -15 6 0 4 7 -3 17 -12 14 -9 14 21 -2 34
-18 43 -18 192 -13 18 1 30 8 34 20 3 10 9 16 14 13 5 -3 12 0 16 6 5 8 3 9
-6 4 -8 -5 -11 -3 -8 6 3 8 11 14 19 14 9 0 15 12 16 30 l2 30 -9 -30 c-7 -27
-8 -26 -9 17 -1 34 -8 54 -27 77 -14 17 -22 31 -18 31 18 0 -16 23 -38 25 -43
5 -241 99 -245 116 -5 19 -30 32 -43 24 -11 -7 -75 66 -102 117 -18 35 -22 60
-22 133 -1 77 3 97 24 140 14 28 30 49 37 48 7 -2 10 3 7 11 -3 7 2 19 11 26
13 11 14 10 9 -5 -5 -13 -4 -16 4 -11 7 4 12 13 12 21 0 8 5 17 12 21 7 5 8 3
3 -5 -6 -10 -3 -11 14 -2 11 7 21 14 21 17 0 3 -5 2 -12 -2 -6 -4 -8 -3 -5 3
4 6 22 16 39 22 31 10 32 10 13 -5 -18 -15 -18 -16 -2 -10 10 3 23 6 28 6 5 0
8 3 8 8 -3 20 8 22 104 22 91 0 107 -3 128 -21z m-1452 -21 c1 6 11 12 24 13
21 1 21 1 -3 9 -14 4 162 7 390 7 l415 -2 -330 -5 -330 -5 328 -3 327 -2 0
-75 0 -75 -152 -2 -153 -2 155 -6 155 -6 -152 -2 -153 -2 -2 -462 -3 -463 -5
455 -5 455 -3 -442 -2 -443 -97 -2 -98 -2 100 -6 100 -5 -103 -5 -102 -5 0
463 0 462 -167 2 -168 2 170 6 170 6 -167 2 -168 2 0 63 c0 34 3 73 7 87 l7
25 7 -25 c4 -14 7 -19 8 -12z"/>
<path d="M15 1280 c0 -690 1 -973 2 -627 2 345 2 909 0 1255 -1 345 -2 62 -2
-628z"/>
<path d="M662 3 c346 -2 910 -2 1255 0 346 1 63 2 -627 2 -690 0 -973 -1 -628
-2z"/>
</g>
</svg>
