<?xml version="1.0" standalone="no"?>
<!DOCTYPE svg PUBLIC "-//W3C//DTD SVG 20010904//EN"
 "http://www.w3.org/TR/2001/REC-SVG-20010904/DTD/svg10.dtd">
<svg version="1.0" xmlns="http://www.w3.org/2000/svg"
 width="860.000000pt" height="860.000000pt" viewBox="0 0 860.000000 860.000000"
 preserveAspectRatio="xMidYMid meet">

<g transform="translate(0.000000,860.000000) scale(0.100000,-0.100000)"
fill="#000000" stroke="none">
<path d="M1830 8020 l0 -580 190 0 190 0 0 195 0 195 180 0 180 0 0 -195 0
-195 190 0 190 0 0 580 0 580 -190 0 -190 0 0 -190 0 -190 -180 0 -180 0 0
190 0 190 -190 0 -190 0 0 -580z"/>
<path d="M3120 8410 l0 -190 170 0 170 0 0 -390 0 -390 195 0 195 0 0 390 0
390 170 0 170 0 0 190 0 190 -535 0 -535 0 0 -190z"/>
<path d="M4360 8020 l0 -580 188 2 187 3 5 280 5 280 126 -195 c69 -106 129
-195 135 -197 5 -1 68 89 139 200 l130 202 3 -288 2 -287 190 0 190 0 0 580 0
580 -202 0 -203 -1 -120 -199 c-66 -110 -122 -200 -125 -200 -3 0 -59 90 -125
200 l-120 199 -202 1 -203 0 0 -580z"/>
<path d="M5852 8023 l3 -578 463 -3 462 -2 0 195 0 195 -270 0 -270 0 0 385 0
385 -195 0 -195 0 2 -577z"/>
<path d="M1270 6883 c0 -14 38 -454 85 -977 104 -1173 154 -1730 295 -3311 61
-682 123 -1383 139 -1558 16 -175 30 -319 32 -322 7 -7 2459 -685 2477 -685 9
0 251 65 537 144 286 80 840 233 1230 341 391 109 711 198 713 200 2 2 10 72
17 156 42 443 535 5990 535 6013 l0 26 -3030 0 -3030 0 0 -27z m5497 -595 c-3
-7 -5 -2 -5 12 0 14 2 19 5 13 2 -7 2 -19 0 -25z m-37 -275 c-11 -17 -11 -17
-6 0 3 10 7 31 7 45 l2 27 4 -27 c2 -15 -1 -35 -7 -45z m-490 -313 c0 -23 -10
-26 -28 -8 -18 18 -52 20 -52 3 0 -13 -111 -15 -920 -15 -607 0 -920 3 -920
10 0 11 36 12 1035 11 391 0 724 3 740 8 17 4 56 9 88 10 51 1 57 -1 57 -19z
m-25 -82 c-4 -24 -6 -73 -5 -110 0 -46 -3 -68 -11 -68 -7 0 -9 -9 -5 -24 3
-14 2 -28 -4 -31 -19 -12 -10 -25 16 -25 14 0 32 -6 39 -14 12 -12 10 -16 -15
-26 -20 -8 -30 -20 -30 -34 -1 -11 -7 -32 -15 -46 -16 -28 -20 -54 -5 -30 14
22 12 0 -5 -56 -23 -76 -18 -134 11 -134 8 0 14 -4 14 -10 0 -5 -11 -10 -24
-10 -22 0 -24 -3 -19 -42 4 -29 3 -39 -5 -34 -8 4 -11 0 -10 -11 3 -45 -1 -53
-29 -48 -16 2 -670 7 -1455 10 l-1428 6 1 -28 c0 -15 15 -188 32 -383 l32
-355 1393 4 1392 4 -1 -94 c-1 -60 -4 -83 -8 -64 l-7 30 -5 -37 c-3 -20 -1
-34 4 -31 10 6 5 -52 -12 -177 -19 -131 -21 -190 -5 -190 8 0 14 -7 14 -15 0
-8 5 -15 10 -15 6 0 10 -7 10 -15 0 -10 -10 -15 -31 -15 l-31 0 6 -57 c5 -41
4 -54 -4 -43 -8 12 -10 10 -10 -10 -1 -14 -4 -55 -9 -93 -4 -37 -4 -73 0 -79
5 -7 4 -15 0 -18 -5 -3 -5 -34 -1 -70 4 -36 8 -57 9 -47 1 20 27 23 34 5 3 -7
6 6 6 30 1 30 5 42 16 42 11 0 15 -11 15 -40 0 -22 5 -40 10 -40 6 0 10 -9 10
-20 0 -11 -4 -20 -10 -20 -5 0 -10 -9 -10 -20 0 -11 -7 -20 -15 -20 -8 0 -15
8 -15 19 0 14 -6 17 -25 13 -14 -2 -25 -10 -25 -17 0 -7 -5 -15 -12 -17 -8 -3
-7 -13 4 -36 15 -29 15 -35 -2 -81 -13 -32 -17 -61 -13 -85 4 -24 2 -36 -6
-36 -8 0 -11 -17 -11 -47 1 -27 -5 -71 -13 -100 -8 -29 -10 -58 -6 -65 7 -10
9 -10 9 1 0 8 2 12 5 9 3 -3 -2 -21 -10 -41 -8 -20 -15 -47 -14 -59 0 -13 3
-17 6 -10 9 22 25 13 17 -10 -6 -20 -5 -21 10 -9 10 8 16 28 16 52 0 37 2 39
30 39 l30 0 0 -80 c0 -47 -4 -80 -10 -80 -5 0 -10 18 -10 40 0 33 -3 40 -20
40 -17 0 -20 -7 -20 -40 0 -36 -3 -40 -25 -40 -30 0 -36 -27 -39 -164 0 -52
-4 -87 -8 -78 -4 9 -7 13 -7 7 -1 -5 -4 -21 -7 -35 -4 -20 -3 -22 5 -10 8 12
11 7 11 -23 0 -25 -4 -36 -11 -31 -8 4 -10 -15 -8 -64 3 -48 -1 -75 -10 -86
-12 -14 -10 -16 13 -16 19 0 26 -5 26 -19 0 -11 6 -22 13 -25 10 -5 10 -7 0
-12 -7 -3 -13 -14 -13 -24 0 -11 -9 -24 -20 -30 -17 -9 -20 -8 -20 12 0 13 -4
18 -8 13 -16 -23 -65 -47 -85 -41 -12 3 -26 2 -31 -3 -11 -8 -73 -25 -133 -36
-18 -4 -33 -10 -33 -15 0 -10 -56 -23 -93 -23 -20 0 -25 -3 -18 -10 6 -6 11
-19 11 -29 0 -16 9 -18 75 -18 68 0 75 2 75 20 0 11 5 20 10 20 6 0 10 9 10
20 0 11 -4 20 -10 20 -5 0 -10 -4 -10 -10 0 -5 -5 -10 -11 -10 -6 0 -9 6 -6
13 2 6 15 12 28 12 17 0 25 -6 27 -22 3 -19 10 -23 43 -23 39 0 39 0 39 -40
l0 -40 -140 0 c-87 0 -140 -4 -140 -10 0 -5 -9 -10 -20 -10 -11 0 -20 5 -20
10 0 6 -9 10 -21 10 -17 0 -20 4 -15 24 5 19 1 25 -16 29 -12 3 -29 2 -37 -4
-12 -8 -10 -8 8 -3 21 5 22 4 10 -9 -8 -8 -17 -13 -21 -10 -4 2 -5 -3 -2 -11
5 -13 -1 -16 -30 -16 -26 0 -36 4 -36 16 0 12 -6 14 -32 8 -18 -4 -41 -8 -50
-8 -9 0 -14 -4 -11 -8 2 -5 -7 -7 -21 -4 -14 3 -26 1 -26 -3 0 -5 -8 -11 -17
-14 -10 -2 -27 -8 -37 -13 -14 -5 -17 -4 -12 4 4 7 3 12 -3 12 -17 0 -23 -20
-10 -36 11 -13 4 -15 -57 -11 -38 2 -82 -1 -99 -6 -28 -8 -30 -11 -26 -53 l3
-44 -73 0 c-51 0 -69 3 -59 10 8 5 16 18 16 30 1 16 -2 18 -12 9 -7 -6 -19 -7
-25 -3 -7 4 -10 3 -6 -2 3 -5 -1 -17 -8 -27 -10 -14 -18 -16 -39 -7 -15 5 -25
6 -22 1 4 -5 -13 -8 -36 -6 -24 2 -37 1 -30 -2 6 -2 12 -13 12 -24 0 -12 7
-19 20 -19 18 0 20 -7 20 -60 l0 -60 -80 0 -80 0 -1 48 c-1 26 -1 53 0 59 1 7
-6 13 -16 13 -15 0 -16 2 -3 10 8 5 10 10 4 10 -6 0 -14 -3 -18 -7 -4 -5 -11
-8 -14 -8 -4 -1 -21 -9 -39 -18 -37 -20 -47 -21 -37 -6 4 8 -1 9 -17 3 -13 -4
-33 -7 -44 -6 -11 1 -366 98 -790 216 l-770 213 -8 79 c-16 175 -97 1090 -97
1107 0 16 26 17 385 17 301 0 385 -3 385 -12 0 -21 52 -593 54 -595 1 -2 297
-82 743 -203 71 -19 103 -24 106 -16 3 6 17 12 33 14 15 1 39 9 52 18 23 15
25 15 19 0 -4 -9 -3 -15 1 -13 4 2 16 7 27 11 15 5 16 9 6 15 -8 5 18 11 65
15 92 9 150 25 131 39 -9 7 -9 10 1 14 7 2 19 11 26 19 19 18 36 18 36 -1 0
-8 -7 -15 -15 -15 -8 0 -15 -4 -15 -10 0 -5 7 -10 15 -10 8 0 15 5 15 11 0 6
9 9 20 6 12 -3 18 -1 14 5 -5 7 2 9 20 4 18 -4 25 -3 21 4 -3 5 2 11 12 11 10
1 33 3 52 5 18 1 38 7 45 14 8 8 6 10 -9 5 -19 -6 -19 -6 -1 5 14 10 20 9 27
-1 7 -11 13 -11 38 4 16 9 43 17 60 17 17 0 55 11 86 24 44 20 55 30 55 48 0
19 -2 20 -10 8 -6 -9 -10 -10 -10 -3 0 6 5 15 10 18 6 3 10 24 10 46 0 21 3
39 8 39 4 0 8 21 8 48 1 26 5 60 9 76 6 21 5 27 -4 22 -6 -4 -11 -1 -11 9 0 9
4 14 9 11 5 -3 7 28 5 69 -2 48 1 75 8 75 5 0 7 7 4 16 -3 9 -3 21 1 27 8 13
9 31 12 145 1 52 4 71 12 66 9 -5 10 11 4 61 -4 38 -3 65 2 62 5 -3 8 21 7 54
-1 33 2 56 7 53 5 -3 9 2 9 10 0 13 -42 15 -312 17 -172 1 -765 4 -1318 8
l-1005 6 -12 125 c-6 69 -23 258 -38 420 -14 162 -30 342 -35 400 -6 58 -33
359 -60 670 -27 311 -53 593 -56 627 l-6 63 958 3 c528 1 1390 3 1918 5 l958
2 -7 -42z m475 -28 l-11 -25 6 25 c2 14 5 36 6 50 l2 25 4 -25 c2 -14 -1 -37
-7 -50z m-3 -102 c-3 -7 -5 -2 -5 12 0 14 2 19 5 13 2 -7 2 -19 0 -25z m0
-125 c-3 -10 -5 -4 -5 12 0 17 2 24 5 18 2 -7 2 -21 0 -30z m-30 -265 c-2 -13
-4 -3 -4 22 0 25 2 35 4 23 2 -13 2 -33 0 -45z m-40 -470 c-2 -18 -4 -4 -4 32
0 36 2 50 4 33 2 -18 2 -48 0 -65z m-40 -410 c-3 -8 -6 -5 -6 6 -1 11 2 17 5
13 3 -3 4 -12 1 -19z m0 -90 c-3 -7 -5 -2 -5 12 0 14 2 19 5 13 2 -7 2 -19 0
-25z m-50 -480 c-3 -7 -5 -2 -5 12 0 14 2 19 5 13 2 -7 2 -19 0 -25z m0 -80
c-3 -7 -5 -2 -5 12 0 14 2 19 5 13 2 -7 2 -19 0 -25z m-33 -255 c-4 -43 -10
-69 -12 -59 -5 24 8 149 15 143 3 -3 1 -41 -3 -84z m-454 -183 c0 -5 -7 -10
-15 -10 -8 0 -15 5 -15 10 0 6 7 10 15 10 8 0 15 -4 15 -10z m-868 -208 c3 -9
1 -26 -3 -37 -6 -15 -8 -11 -8 18 -1 40 4 48 11 19z m1295 -34 c-3 -7 -5 -2
-5 12 0 14 2 19 5 13 2 -7 2 -19 0 -25z m-10 -40 c-3 -8 -6 -5 -6 6 -1 11 2
17 5 13 3 -3 4 -12 1 -19z m-1316 -21 c-10 -9 -11 -8 -5 6 3 10 9 15 12 12 3
-3 0 -11 -7 -18z m939 -307 c0 -136 -2 -160 -15 -160 -12 0 -15 17 -15 89 0
118 -7 149 -34 153 -11 2 -20 6 -18 11 1 4 2 21 2 37 0 28 2 30 40 30 l40 0 0
-160z m-123 -42 c-3 -8 -6 -5 -6 6 -1 11 2 17 5 13 3 -3 4 -12 1 -19z m470
-30 c-3 -7 -5 -2 -5 12 0 14 2 19 5 13 2 -7 2 -19 0 -25z m-7 -34 c0 -8 -5
-12 -10 -9 -6 4 -8 11 -5 16 9 14 15 11 15 -7z m-1377 -61 c-7 -2 -19 -2 -25
0 -7 3 -2 5 12 5 14 0 19 -2 13 -5z m-438 -123 c-3 -5 -16 -10 -28 -10 -18 0
-19 2 -7 10 20 13 43 13 35 0z m1775 -215 c0 -14 -4 -25 -10 -25 -5 0 -10 11
-10 25 0 14 5 25 10 25 6 0 10 -11 10 -25z m-50 -482 c-11 -17 -11 -17 -6 0 3
10 7 31 7 45 l2 27 4 -27 c2 -15 -1 -35 -7 -45z m-1395 -43 c-3 -5 -12 -10
-18 -10 -7 0 -6 4 3 10 19 12 23 12 15 0z m-615 -212 c-3 -73 0 -98 10 -98 6
0 10 14 10 30 0 17 5 30 10 30 6 0 10 -19 10 -41 0 -36 -2 -41 -20 -36 -19 5
-20 0 -20 -83 0 -83 1 -88 20 -83 19 5 20 0 20 -116 0 -114 -1 -121 -20 -121
-17 0 -20 -7 -20 -44 0 -40 2 -44 21 -39 21 6 22 3 17 -40 -5 -45 -4 -47 21
-48 l26 -2 -28 -4 c-15 -2 -25 -9 -22 -14 4 -5 -3 -9 -13 -9 -18 0 -19 4 -11
38 6 29 5 40 -8 52 -14 13 -15 13 -10 -5 4 -11 2 -36 -2 -55 -6 -21 -9 113
-10 348 -1 266 2 382 10 382 6 0 10 -18 9 -42z m1965 -168 c-3 -5 -12 -10 -18
-10 -7 0 -6 4 3 10 19 12 23 12 15 0z m-128 -36 c-3 -3 -12 -4 -19 -1 -8 3 -5
6 6 6 11 1 17 -2 13 -5z m-44 -11 c-7 -2 -19 -2 -25 0 -7 3 -2 5 12 5 14 0 19
-2 13 -5z m-108 -33 c-3 -5 -12 -10 -18 -10 -7 0 -6 4 3 10 19 12 23 12 15 0z
m-177 -47 c-10 -2 -26 -2 -35 0 -10 3 -2 5 17 5 19 0 27 -2 18 -5z m-128 -33
c-14 -4 -34 -8 -45 -8 -16 0 -15 2 5 8 14 4 34 8 45 8 16 0 15 -2 -5 -8z
m-263 -76 c-3 -3 -12 -4 -19 -1 -8 3 -5 6 6 6 11 1 17 -2 13 -5z m-44 -11 c-7
-2 -19 -2 -25 0 -7 3 -2 5 12 5 14 0 19 -2 13 -5z m-138 -28 c25 -11 27 -14 9
-14 -36 -2 -84 11 -78 20 7 13 34 10 69 -6z m-252 -82 c-7 -2 -21 -2 -30 0
-10 3 -4 5 12 5 17 0 24 -2 18 -5z m-196 -49 c-3 -3 -12 -4 -19 -1 -8 3 -5 6
6 6 11 1 17 -2 13 -5z m-134 -41 c-7 -2 -19 -2 -25 0 -7 3 -2 5 12 5 14 0 19
-2 13 -5z m-118 -24 c11 -1 4 -5 -15 -8 -44 -8 -78 -2 -58 11 7 4 22 6 33 3
11 -2 29 -5 40 -6z"/>
<path d="M5981 3124 c0 -11 3 -14 6 -6 3 7 2 16 -1 19 -3 4 -6 -2 -5 -13z"/>
<path d="M5981 3044 c0 -11 3 -14 6 -6 3 7 2 16 -1 19 -3 4 -6 -2 -5 -13z"/>
<path d="M5315 1590 c-3 -5 -1 -10 4 -10 6 0 11 5 11 10 0 6 -2 10 -4 10 -3 0
-8 -4 -11 -10z"/>
<path d="M5020 1530 c-9 -6 -10 -10 -3 -10 6 0 15 5 18 10 8 12 4 12 -15 0z"/>
<path d="M4787 1454 c3 -7 9 -14 14 -14 14 0 10 17 -5 23 -10 4 -13 1 -9 -9z"/>
<path d="M4528 1383 c-9 -2 -16 -13 -15 -24 2 -25 11 -24 26 4 6 12 10 15 7 6
-4 -16 11 -39 26 -39 4 0 8 7 8 15 0 8 -5 15 -11 15 -6 0 -9 7 -5 15 5 15 -3
17 -36 8z"/>
<path d="M4320 940 c0 -18 4 -29 10 -25 6 3 10 15 10 25 0 10 -4 22 -10 25 -6
4 -10 -7 -10 -25z"/>
<path d="M4320 870 c0 -5 5 -10 10 -10 6 0 10 5 10 10 0 6 -4 10 -10 10 -5 0
-10 -4 -10 -10z"/>
</g>
</svg>
