<?xml version="1.0" standalone="no"?>
<!DOCTYPE svg PUBLIC "-//W3C//DTD SVG 20010904//EN"
 "http://www.w3.org/TR/2001/REC-SVG-20010904/DTD/svg10.dtd">
<svg version="1.0" xmlns="http://www.w3.org/2000/svg"
 width="860.000000pt" height="860.000000pt" viewBox="0 0 860.000000 860.000000"
 preserveAspectRatio="xMidYMid meet">

<g transform="translate(0.000000,860.000000) scale(0.100000,-0.100000)"
fill="#000000" stroke="none">
<path d="M6405 4694 c-22 -3 -79 -11 -126 -19 -409 -69 -735 -328 -856 -680
-98 -285 -77 -639 52 -900 57 -114 121 -199 227 -301 158 -151 372 -274 783
-449 446 -190 575 -284 620 -450 49 -178 -30 -347 -198 -430 -116 -56 -182
-70 -342 -69 -199 1 -333 41 -482 142 -73 50 -193 175 -257 269 -44 66 -51 71
-70 61 -45 -24 -612 -351 -623 -360 -14 -11 3 -50 63 -144 148 -232 384 -431
644 -544 326 -142 763 -185 1132 -110 607 123 958 524 958 1094 0 400 -141
691 -448 925 -163 124 -355 226 -727 386 -402 174 -500 239 -564 375 -22 47
-26 69 -26 150 0 82 4 103 26 151 34 72 88 124 168 162 53 25 80 31 160 35
113 5 183 -7 270 -48 75 -36 170 -126 231 -220 22 -36 45 -65 49 -65 15 0 620
390 621 399 0 5 -29 52 -64 105 -193 289 -454 460 -789 517 -92 15 -356 26
-432 18z"/>
<path d="M3868 3188 l-3 -1463 -22 -65 c-44 -128 -109 -199 -216 -237 -40 -14
-82 -18 -183 -18 l-130 0 -76 38 c-94 46 -178 133 -257 266 -30 51 -58 94 -61
96 -4 2 -43 -17 -86 -44 -43 -27 -189 -115 -324 -196 -135 -81 -246 -149 -248
-150 -7 -6 74 -145 127 -219 287 -406 784 -590 1356 -501 497 77 798 364 908
865 21 94 21 115 24 1593 l4 1497 -405 0 -405 0 -3 -1462z"/>
</g>
</svg>
