<?xml version="1.0" standalone="no"?>
<!DOCTYPE svg PUBLIC "-//W3C//DTD SVG 20010904//EN"
 "http://www.w3.org/TR/2001/REC-SVG-20010904/DTD/svg10.dtd">
<svg version="1.0" xmlns="http://www.w3.org/2000/svg"
 width="860.000000pt" height="860.000000pt" viewBox="0 0 860.000000 860.000000"
 preserveAspectRatio="xMidYMid meet">
<metadata>
Created by potrace 1.16, written by Peter Selinger 2001-2019
</metadata>
<g transform="translate(0.000000,860.000000) scale(0.100000,-0.100000)"
fill="#000000" stroke="none">
<path d="M4470 6303 c-31 -3 -40 -7 -30 -14 10 -6 11 -9 3 -9 -8 0 -13 -15
-13 -40 0 -29 -4 -40 -15 -40 -29 0 -15 -19 18 -23 l32 -4 -32 -1 c-34 -2 -46
-21 -15 -24 58 -5 102 -4 102 4 0 10 126 9 195 -2 l50 -7 -42 -2 c-67 -2 -51
-21 17 -21 48 0 60 3 60 16 0 11 8 15 27 12 24 -3 28 1 34 31 4 19 4 53 0 75
l-6 41 -95 6 c-103 7 -219 8 -290 2z"/>
<path d="M4890 6213 l0 -80 48 -1 c78 -1 102 -6 102 -21 0 -11 12 -13 58 -8
65 7 209 -3 193 -13 -6 -3 6 -6 27 -7 59 -1 216 -23 222 -31 3 -4 23 -8 45
-10 21 -1 44 -7 50 -14 7 -8 6 -9 -4 -3 -9 5 -12 4 -7 -3 21 -35 136 -58 136
-27 0 11 -13 15 -52 17 l-53 2 47 3 c31 3 55 -1 71 -12 13 -8 42 -16 63 -17
22 0 45 -5 52 -11 7 -6 23 -12 35 -13 12 -2 33 -5 47 -7 14 -3 28 -5 33 -6 4
0 5 -13 2 -28 -5 -24 -4 -25 4 -7 5 12 17 24 26 27 9 4 13 3 10 -3 -3 -6 2
-11 12 -11 26 -2 55 -8 118 -27 18 -5 18 -6 -5 -14 -20 -6 -17 -7 13 -3 20 2
37 0 37 -6 0 -5 17 -9 38 -9 32 -1 105 -29 76 -30 -15 0 -13 -28 3 -34 7 -3
12 0 10 6 -2 13 47 19 73 9 9 -3 1 -8 -20 -12 l-35 -6 38 -2 c22 0 37 4 37 11
0 6 7 4 18 -5 10 -10 32 -17 48 -17 23 0 26 -2 14 -11 -12 -9 -11 -10 8 -6 14
3 20 1 15 -6 -4 -6 0 -8 10 -4 11 4 14 2 10 -9 -4 -11 2 -14 25 -12 16 1 37
-3 45 -10 8 -7 19 -12 23 -10 14 3 54 -13 54 -22 0 -4 7 -11 16 -14 15 -6 15
-4 3 11 -13 17 -13 17 7 0 11 -9 24 -14 29 -10 4 5 5 3 2 -3 -8 -13 20 -27 34
-18 5 3 9 0 9 -6 0 -6 5 -8 10 -5 6 4 9 1 8 -7 -2 -8 9 -14 31 -16 26 -3 31
-6 20 -13 -10 -6 -8 -8 11 -7 28 1 83 -25 73 -35 -3 -4 5 -7 18 -7 13 0 35 -9
49 -20 14 -11 30 -20 35 -20 6 0 23 -16 39 -35 22 -26 35 -34 49 -29 13 4 17
2 13 -5 -4 -6 -2 -9 6 -6 8 3 22 -1 33 -10 17 -12 18 -16 6 -24 -11 -7 -3 -12
30 -21 24 -7 50 -14 57 -16 8 -2 16 -13 19 -25 4 -13 8 -16 13 -9 5 8 11 6 20
-5 10 -12 10 -15 -4 -15 -9 0 -16 -5 -16 -11 0 -5 4 -8 9 -5 10 7 61 -16 61
-27 0 -5 4 -6 10 -2 14 9 52 -33 43 -48 -11 -18 -12 -37 -2 -37 6 0 9 8 7 18
-2 11 3 17 15 17 9 0 16 -2 15 -5 -1 -3 4 -14 10 -26 8 -16 8 -24 -1 -35 -7
-7 -2 -6 9 4 19 16 22 16 27 2 4 -8 12 -14 19 -13 7 2 12 -2 13 -9 0 -15 14
-28 28 -28 7 0 12 -4 12 -10 0 -17 16 -36 25 -30 11 7 70 -71 70 -91 0 -7 -5
-16 -12 -20 -7 -4 -8 -3 -4 4 4 7 2 12 -3 12 -6 0 -10 3 -10 8 1 4 1 14 0 22
-1 12 -3 12 -10 2 -13 -22 -1 -62 19 -62 10 0 20 -5 22 -12 7 -21 29 3 23 25
-4 17 -2 15 10 -5 9 -16 20 -28 25 -28 6 0 10 -5 10 -12 0 -6 -10 -3 -22 8
l-22 19 20 -27 c10 -15 25 -25 32 -23 6 2 12 -2 12 -10 0 -8 4 -15 9 -15 6 0
8 -9 6 -20 -2 -11 0 -18 6 -15 5 4 9 -3 9 -15 0 -12 -4 -18 -10 -15 -5 3 -10
-2 -10 -11 0 -16 1 -16 19 0 19 17 20 17 31 -4 8 -15 8 -20 1 -16 -7 4 -9 1
-5 -8 3 -8 12 -17 20 -20 8 -3 14 -14 14 -25 0 -11 4 -22 9 -25 4 -3 14 -26
21 -51 7 -25 17 -45 21 -45 5 0 7 -11 4 -23 -4 -15 2 -40 15 -65 18 -35 23
-65 28 -168 4 -101 2 -128 -9 -135 -10 -7 -11 -11 -2 -17 9 -5 8 -25 -1 -80
-12 -70 -34 -118 -32 -71 1 12 -5 24 -13 27 -10 3 -11 0 -3 -13 5 -10 7 -27 4
-38 -4 -15 -2 -18 8 -12 10 6 12 4 7 -9 -4 -10 -7 -24 -7 -33 0 -8 -6 -13 -12
-11 -15 5 -39 -38 -37 -67 3 -42 -2 -53 -23 -59 -18 -5 -20 -8 -9 -15 11 -7
10 -11 -5 -20 -11 -6 -16 -11 -12 -11 9 0 -39 -87 -69 -124 -13 -16 -27 -25
-34 -21 -8 5 -9 1 -5 -13 5 -15 1 -24 -13 -31 -11 -6 -26 -23 -34 -39 -7 -15
-19 -26 -26 -24 -7 1 -9 -2 -6 -8 4 -7 -2 -14 -13 -17 -11 -2 -23 -14 -25 -25
-3 -11 -10 -17 -15 -14 -10 6 -30 -12 -31 -29 -1 -5 -9 -11 -19 -11 -35 -3
-37 -4 -22 -14 12 -8 12 -10 -3 -16 -9 -3 -14 -10 -11 -15 3 -5 1 -9 -5 -9 -5
0 -12 8 -14 18 -3 9 -5 4 -4 -13 2 -26 -1 -30 -23 -28 -14 1 -20 -1 -13 -3 14
-6 -15 -44 -34 -44 -6 0 -18 -6 -25 -13 -7 -7 -21 -16 -30 -20 -10 -3 -18 -12
-18 -19 0 -7 -25 -30 -55 -51 -40 -27 -53 -33 -48 -20 5 14 3 16 -7 6 -7 -6
-20 -9 -29 -6 -11 4 -10 1 4 -10 20 -15 20 -16 -5 -25 -14 -5 -29 -7 -34 -4
-5 3 -6 0 -3 -5 8 -12 -14 -33 -36 -37 -8 -1 -22 -8 -30 -15 -20 -16 -75 -23
-82 -10 -8 12 -25 12 -25 -1 0 -5 12 -13 26 -16 l27 -7 -23 -12 c-13 -7 -31
-10 -41 -8 -11 3 -19 -2 -24 -16 -3 -12 -14 -21 -23 -21 -8 0 -26 -9 -38 -21
-13 -12 -38 -23 -56 -24 -18 -2 -32 -8 -31 -14 2 -6 -4 -8 -12 -5 -8 4 -12 11
-8 18 4 6 -2 4 -13 -4 -29 -22 -30 -24 -11 -17 34 12 16 -8 -27 -30 -33 -17
-46 -19 -55 -10 -10 9 -12 9 -9 -3 2 -10 -3 -14 -16 -12 -10 2 -15 -1 -12 -6
3 -6 -1 -13 -10 -16 -22 -9 -31 -7 -16 3 10 6 9 11 -4 22 -16 12 -17 12 -11
-3 9 -25 -19 -49 -48 -42 -32 8 -85 -15 -78 -34 4 -8 0 -12 -8 -11 -8 2 -24
-2 -36 -9 -13 -7 -23 -9 -23 -5 0 4 -4 2 -8 -5 -5 -7 -23 -14 -40 -15 -18 -1
-32 -6 -32 -10 0 -5 -9 -5 -20 -2 -13 4 -22 1 -26 -9 -4 -10 -18 -16 -40 -16
-19 0 -34 -5 -34 -11 0 -5 -5 -7 -10 -4 -22 14 -70 23 -70 14 0 -5 11 -9 25
-9 14 0 25 -5 25 -11 0 -6 -6 -9 -14 -6 -7 3 -18 1 -24 -5 -6 -6 -37 -11 -69
-11 -33 0 -50 -3 -39 -7 14 -4 16 -9 8 -14 -7 -4 -17 -4 -23 0 -6 3 -15 1 -18
-5 -4 -7 -23 -13 -42 -15 -19 -2 -47 -8 -62 -14 -34 -14 -40 -15 -33 -3 4 5
-3 7 -14 4 -11 -3 -17 -9 -14 -14 3 -5 -11 -9 -30 -9 -19 0 -46 -5 -60 -11
-20 -9 -29 -9 -41 1 -13 11 -15 10 -10 -1 4 -10 -2 -15 -17 -16 -18 -2 -20 0
-8 7 9 6 10 10 3 10 -21 0 -43 -12 -37 -21 3 -5 -18 -9 -45 -9 -28 0 -51 -4
-51 -8 0 -4 -8 -8 -17 -9 -10 -1 -38 -6 -63 -13 -25 -6 -73 -12 -107 -13 -33
-1 -59 -5 -57 -9 3 -5 -10 -8 -28 -7 -27 0 -30 2 -13 9 15 6 6 8 -30 8 -40 0
-44 -2 -20 -7 46 -10 18 -19 -91 -29 -54 -5 -110 -11 -124 -12 -14 -2 -60 -3
-104 -3 -43 -1 -70 -4 -60 -7 33 -12 -193 -20 -553 -20 -339 0 -353 1 -353 19
0 12 -9 20 -25 23 -19 4 -23 2 -15 -7 8 -9 0 -14 -32 -19 -26 -4 -44 -3 -48 4
-6 10 -53 14 -232 19 -37 1 -48 5 -48 17 0 14 -7 16 -52 9 -29 -4 -62 -7 -73
-7 -40 -1 -175 27 -175 35 0 5 -7 15 -15 24 -16 16 -51 10 -40 -7 4 -6 -14
-10 -49 -10 -30 0 -56 4 -58 9 -1 4 -39 11 -82 14 -81 7 -113 16 -60 18 29 1
29 1 4 9 -14 4 -36 8 -50 8 -23 1 -23 0 -5 -8 11 -5 15 -9 8 -9 -18 -1 -67 19
-74 31 -3 5 -28 11 -55 13 -82 5 -120 12 -152 29 -17 9 -42 16 -55 16 -13 0
-46 7 -73 15 -27 9 -59 18 -72 21 -13 2 -52 16 -88 30 -47 19 -64 31 -64 45 0
20 -15 26 -25 9 -8 -13 -27 -13 -62 2 -15 6 -32 12 -38 13 -5 0 -23 6 -38 13
-16 7 -34 12 -40 12 -16 1 -105 49 -92 50 11 1 -49 25 -102 41 -26 8 -33 16
-39 44 -7 37 -24 43 -69 26 -18 -7 -33 -3 -75 21 -15 8 -42 21 -70 33 -8 3
-33 17 -55 31 -22 13 -52 30 -67 36 -16 7 -28 16 -28 20 0 4 -6 8 -14 8 -8 0
-24 13 -36 30 -12 16 -29 30 -38 31 -11 0 -13 2 -4 6 10 4 10 8 1 19 -8 10
-16 11 -29 4 -25 -13 -35 4 -15 23 20 21 19 27 -5 27 -13 0 -20 7 -20 20 0 13
-7 20 -20 20 -11 0 -20 5 -20 10 0 6 -11 10 -25 10 -14 0 -25 -4 -25 -10 0
-19 -20 -10 -62 30 -24 22 -48 40 -55 40 -6 0 -15 9 -18 21 -6 18 -67 81 -99
101 -8 5 -8 10 0 18 17 17 5 60 -17 60 -11 0 -19 6 -19 13 0 9 -3 8 -9 -2 -10
-16 -31 -6 -31 15 0 8 -6 14 -12 14 -7 0 -29 23 -48 50 -19 28 -40 56 -46 63
-7 8 -10 27 -8 44 2 23 -1 32 -14 35 -30 8 -97 181 -108 280 -4 32 -9 56 -13
54 -11 -7 -6 288 6 309 6 11 11 41 11 66 1 43 -3 51 -52 102 -29 31 -56 54
-60 50 -3 -3 -6 -180 -6 -393 l0 -387 51 -104 c187 -382 537 -696 1079 -968
486 -244 1005 -396 1700 -497 184 -27 189 -27 870 -31 712 -5 795 -2 1075 38
867 124 1619 402 2143 794 142 105 326 286 422 413 88 117 166 261 204 374 26
75 26 82 26 368 0 286 0 293 -26 368 -109 326 -417 669 -836 932 -232 145
-622 321 -933 420 -391 124 -933 232 -1332 266 l-83 7 0 -80z"/>
<path d="M3856 5718 c-3 -7 -22 -107 -45 -223 -22 -115 -72 -374 -111 -575
-203 -1043 -230 -1186 -230 -1198 0 -10 47 -12 217 -10 l216 3 112 575 112
575 184 3 c263 4 356 -14 396 -75 28 -42 22 -144 -20 -358 -110 -557 -137
-697 -137 -710 0 -13 32 -15 220 -15 121 0 220 1 220 3 0 1 9 47 20 102 118
606 169 881 174 936 15 143 -35 274 -127 336 -123 82 -243 103 -598 103 -148
0 -269 1 -269 3 0 1 23 116 50 256 28 140 50 260 50 268 0 19 -429 19 -434 1z"/>
<path d="M2020 5185 c0 -5 -34 -180 -211 -1090 -38 -198 -93 -477 -120 -620
-28 -143 -53 -270 -56 -282 l-5 -23 220 0 221 0 10 53 c6 28 30 149 54 267
l42 215 310 6 c367 8 433 18 586 95 208 103 388 332 450 569 30 114 37 317 14
405 -50 194 -189 326 -405 386 -58 16 -122 18 -587 22 -288 1 -523 1 -523 -3z
m910 -339 c68 -22 133 -84 149 -141 18 -67 13 -184 -13 -287 -52 -204 -138
-305 -309 -361 -53 -17 -95 -21 -289 -25 -126 -2 -228 -1 -228 4 0 9 148 777
157 812 l6 24 236 -4 c192 -4 246 -8 291 -22z"/>
<path d="M5460 5182 c0 -8 -32 -174 -149 -777 -39 -198 -106 -547 -151 -775
-44 -228 -82 -425 -85 -437 l-5 -23 220 0 c219 0 220 0 225 23 3 12 27 132 53
267 l47 245 310 6 c366 8 434 19 585 94 222 111 393 330 454 580 101 417 -58
710 -426 786 -84 17 -140 19 -585 19 -271 0 -493 -4 -493 -8z m920 -340 c111
-44 149 -107 150 -245 0 -113 -22 -212 -70 -312 -47 -97 -104 -158 -186 -197
-99 -46 -176 -58 -397 -58 l-199 0 6 28 c11 52 156 803 156 808 0 3 109 4 243
2 220 -4 247 -6 297 -26z"/>
<path d="M831 5144 c0 -6 -12 -16 -26 -22 -14 -6 -25 -16 -25 -22 0 -6 -15
-26 -33 -45 -18 -19 -40 -47 -48 -62 -8 -15 -22 -37 -32 -48 -10 -11 -41 -66
-70 -123 l-52 -103 60 -53 c33 -30 63 -52 67 -50 4 3 13 23 19 44 7 22 16 40
21 40 4 0 8 11 8 24 0 13 9 35 20 49 11 14 20 36 21 49 0 12 3 17 6 11 7 -20
22 -15 16 5 -2 10 2 24 10 31 8 6 13 21 10 31 -5 17 0 20 35 20 l40 0 4 60 c2
43 -1 60 -9 60 -8 0 -13 14 -13 35 0 19 -4 35 -9 35 -5 0 -12 10 -14 23 -2 12
-5 17 -6 11z"/>
</g>
</svg>
